PathFileType	4	(X/Y/Z)	5_coords_data.trc
DataRate	CameraRate	NumFrames	NumMarkers	Units	OrigDataRate	OrigDataStartFrame	OrigNumFrames
30.0	30.0	5	21	m	30.0	21	70
Frame#	Time	THUMB_TIP	THUMB_IP	THUMB_MCP	THUMB_CMC	INDEX_TIP	INDEX_DIP	INDEX_PIP	INDEX_MCP	MIDDLE_TIP	MIDDLE_DIP	MIDDLE_PIP	MIDDLE_MCP	RING_TIP	RING_DIP	RING_PIP	RING_MCP	PINKY_TIP	PINKY_DIP	PINKY_PIP	PINKY_MCP	WRIST
X1	Y1	Z1	X2	Y2	Z2	X3	Y3	Z3	X4	Y4	Z4	X5	Y5	Z5	X6	Y6	Z6	X7	Y7	Z7	X8	Y8	Z8	X9	Y9	Z9	X10	Y10	Z10	X11	Y11	Z11	X12	Y12	Z12	X13	Y13	Z13	X14	Y14	Z14	X15	Y15	Z15	X16	Y16	Z16	X17	Y17	Z17	X18	Y18	Z18	X19	Y19	Z19	X20	Y20	Z20	X21	Y21	Z21
20	0.6666666666666666	-0.012179699897766114	-0.05658089828491211	0.9984099731445313	-0.0071143097877502445	-0.07350350189208985	1.0151900024414062	-0.01867169952392578	-0.08127529907226562	1.04218994140625	-0.03377470016479492	-0.057937801361083986	1.0566400146484376	-0.03658309936523438	-0.0961178970336914	0.9332520141601562	-0.04436429977416992	-0.09397820281982422	0.95431201171875	-0.05346620178222656	-0.09052960205078125	0.9761209716796875	-0.06318989944458007	-0.08357469940185547	1.0115599975585938	-0.019884300231933594	-0.0633907012939453	1.0338699951171875	-0.019668399810791017	-0.06727760314941406	1.0160900268554687	-0.028448299407958986	-0.07281410217285156	0.9916599731445312	-0.06742489624023437	-0.06479199981689453	1.004719970703125	-0.01026140022277832	-0.052595600128173825	1.0326199951171875	-0.016339599609375	-0.05350299835205078	1.01297998046875	-0.025397699356079103	-0.05516009902954101	0.98885498046875	-0.061609699249267576	-0.046457099914550784	1.0041799926757813	-0.038150901794433596	-0.04151490020751953	0.9413309936523437	-0.03992570114135742	-0.039314498901367186	0.9617830200195312	-0.04211640167236328	-0.03794240188598633	0.9806649780273438	-0.043563201904296876	-0.0345182991027832	1.0081900024414063	-0.053048900604248043	-0.03381349945068359	1.0746300048828126
21	0.7	-0.01191510009765625	-0.05653779983520508	0.9987459716796875	-0.0067496800422668455	-0.07370140075683594	1.015	-0.018354299545288087	-0.08124829864501953	1.042199951171875	-0.03354719924926758	-0.05819189834594726	1.0567099609375	-0.036166301727294924	-0.09622049713134766	0.9335139770507812	-0.04396110153198242	-0.09408149719238282	0.9544879760742188	-0.05305830001831055	-0.09060320281982422	0.9762210083007813	-0.06291669845581055	-0.08357199859619141	1.0118099975585937	-0.01824570083618164	-0.06290769958496094	1.0350899658203125	-0.01938570022583008	-0.0673375015258789	1.0164500122070312	-0.028202600479125976	-0.07289080047607421	0.9917579956054687	-0.0671626968383789	-0.06484519958496093	1.0049400024414064	-0.00991044044494629	-0.05270050048828125	1.03302001953125	-0.016085500717163085	-0.05369649887084961	1.0136799926757813	-0.025193500518798827	-0.05524420166015625	0.9890449829101563	-0.061429100036621095	-0.04642340087890625	1.0041699829101562	-0.037725101470947264	-0.0413916015625	0.9414569702148438	-0.03963119888305664	-0.03922650146484375	0.96197998046875	-0.041862998962402344	-0.037929100036621095	0.980885986328125	-0.04334130096435547	-0.034462299346923825	1.0086400146484376	-0.05292430114746094	-0.033948501586914065	1.0748299560546875
22	0.7333333333333333	-0.01194629955291748	-0.05658060073852539	0.998968994140625	-0.006578670024871826	-0.07375409698486328	1.0153099975585937	-0.018170799255371094	-0.08138899993896484	1.0423299560546875	-0.03342829895019531	-0.058058998107910154	1.0569200439453126	-0.03587639999389648	-0.0962958984375	0.9336950073242187	-0.043768798828125	-0.09414219665527344	0.9546129760742188	-0.05293199920654297	-0.09065779876708985	0.9764400024414063	-0.06275859832763672	-0.08368589782714844	1.011760009765625	-0.01921969985961914	-0.06324580001831055	1.0350799560546875	-0.01925429916381836	-0.06733329772949219	1.0166300048828125	-0.027981800079345705	-0.0729469985961914	0.9919539794921876	-0.06696160125732421	-0.06489479827880859	1.0050900268554688	-0.009505120277404785	-0.05286370086669922	1.03322998046875	-0.015847700119018555	-0.05357310104370117	1.0133900146484376	-0.02493659973144531	-0.05528150177001953	0.9891699829101562	-0.06104859924316406	-0.04653860092163086	1.0045800170898438	-0.03747480010986328	-0.04140510177612305	0.9416599731445312	-0.03934560012817383	-0.03922800064086914	0.96210498046875	-0.04163119888305664	-0.03794499969482422	0.9810139770507813	-0.0430447998046875	-0.0345526008605957	1.0086099853515624	-0.05270880126953125	-0.03409540176391602	1.074989990234375
23	0.7666666666666667	-0.01160200023651123	-0.05671670150756836	0.9990419921875	-0.006351170063018799	-0.07374240112304688	1.0154099731445312	-0.01817620086669922	-0.0813750991821289	1.04277001953125	-0.03324349975585938	-0.058147499084472656	1.05706005859375	-0.035458900451660155	-0.09635780334472656	0.9338519897460937	-0.0433739013671875	-0.09418379974365235	0.9547739868164062	-0.052562198638916015	-0.09068470001220703	0.9765230102539062	-0.06236349868774414	-0.08365000152587891	1.0119199829101562	-0.018907699584960937	-0.06354040145874024	1.03475	-0.019041400909423828	-0.06753990173339844	1.0168900146484374	-0.027714000701904298	-0.07300330352783203	0.9921060180664063	-0.06668669891357422	-0.0649051971435547	1.0051900024414062	-0.00934556007385254	-0.052877498626708985	1.03331005859375	-0.01568369960784912	-0.05355229949951172	1.013469970703125	-0.024730100631713867	-0.055310501098632815	0.9893469848632812	-0.06082089996337891	-0.04657880020141601	1.0046900024414063	-0.0371431999206543	-0.041392601013183594	0.941791015625	-0.039071998596191405	-0.03923149871826172	0.9622520141601563	-0.04136339950561523	-0.03796879959106445	0.981177978515625	-0.04286819839477539	-0.03464619827270508	1.0086599731445312	-0.05263119888305664	-0.03398310089111328	1.075280029296875
24	0.8	-0.011414600372314452	-0.05657870101928711	0.9993400268554687	-0.006201079845428467	-0.07381169891357423	1.0158099975585937	-0.017796300888061525	-0.08134670257568359	1.04268994140625	-0.033088699340820316	-0.05809299850463867	1.057239990234375	-0.03498979949951172	-0.09650969696044921	0.9341170043945313	-0.04295299911499023	-0.0943031997680664	0.9549979858398437	-0.0522484016418457	-0.09079720306396484	0.9767069702148438	-0.06214849853515625	-0.08371320343017578	1.0120399780273437	-0.018574399948120116	-0.06340370178222657	1.03456005859375	-0.01862649917602539	-0.06734040069580079	1.0168300170898437	-0.027478099822998047	-0.07305290222167969	0.9922059936523437	-0.06640339660644531	-0.0649937973022461	1.0052000122070313	-0.009449119567871095	-0.05262739944458008	1.0339200439453125	-0.015244600296020507	-0.05364410018920898	1.0135599975585938	-0.02444580078125	-0.05535580062866211	0.9894459838867188	-0.060597900390625	-0.046659801483154295	1.0046799926757812	-0.03677090072631836	-0.04148429870605469	0.9419819946289063	-0.038719898223876954	-0.03937149810791016	0.9624169921875	-0.04108710098266601	-0.03806119918823242	0.9813880004882812	-0.042589698791503906	-0.03463919830322266	1.0089299926757813	-0.05233499908447266	-0.034105499267578124	1.075280029296875
